<mxfile modified="2021-02-01T14:33:07.587Z" host="app.diagrams.net" agent="5.0 (Macintosh; Intel Mac OS X 10_15_7) AppleWebKit/537.36 (KHTML, like Gecko) Chrome/88.0.4324.96 Safari/537.36" etag="mVevHWALzYjtKj1KMIhV" version="14.0.5" type="github">
  <diagram id="Ht1M8jgEwFfnCIfOTk4-" name="Page-1">
    <mxGraphModel dx="1298" dy="705" grid="1" gridSize="10" guides="1" tooltips="1" connect="1" arrows="1" fold="1" page="1" pageScale="1" pageWidth="1169" pageHeight="827" math="0" shadow="0">
      <root>
        <mxCell id="0" />
        <mxCell id="1" parent="0" />
        <mxCell id="sv8TZbt-S6DjbUds4RR_-1" value="" style="rounded=1;whiteSpace=wrap;html=1;" vertex="1" parent="1">
          <mxGeometry x="60" y="70" width="300" height="590" as="geometry" />
        </mxCell>
        <mxCell id="sv8TZbt-S6DjbUds4RR_-2" value="" style="rounded=1;whiteSpace=wrap;html=1;" vertex="1" parent="1">
          <mxGeometry x="400" y="70" width="300" height="590" as="geometry" />
        </mxCell>
        <mxCell id="sv8TZbt-S6DjbUds4RR_-3" value="" style="rounded=1;whiteSpace=wrap;html=1;" vertex="1" parent="1">
          <mxGeometry x="740" y="70" width="300" height="350" as="geometry" />
        </mxCell>
        <mxCell id="sv8TZbt-S6DjbUds4RR_-4" value="Basic Account Configuration&lt;br&gt;Every Account By Default&lt;br&gt;" style="text;html=1;align=center;verticalAlign=middle;resizable=0;points=[];autosize=1;" vertex="1" parent="1">
          <mxGeometry x="119" y="40" width="170" height="30" as="geometry" />
        </mxCell>
        <mxCell id="sv8TZbt-S6DjbUds4RR_-5" value="Security &amp;amp; Compliance" style="outlineConnect=0;fontColor=#232F3E;gradientColor=#F54749;gradientDirection=north;fillColor=#C7131F;strokeColor=#ffffff;dashed=0;verticalLabelPosition=bottom;verticalAlign=top;align=center;html=1;fontSize=12;fontStyle=0;aspect=fixed;shape=mxgraph.aws4.resourceIcon;resIcon=mxgraph.aws4.security_identity_and_compliance;" vertex="1" parent="1">
          <mxGeometry x="90" y="130" width="78" height="78" as="geometry" />
        </mxCell>
        <mxCell id="sv8TZbt-S6DjbUds4RR_-6" value="2nd Tier" style="text;html=1;strokeColor=none;fillColor=none;align=center;verticalAlign=middle;whiteSpace=wrap;rounded=0;" vertex="1" parent="1">
          <mxGeometry x="510" y="50" width="70" height="20" as="geometry" />
        </mxCell>
        <mxCell id="sv8TZbt-S6DjbUds4RR_-7" value="App Tier" style="text;html=1;align=center;verticalAlign=middle;resizable=0;points=[];autosize=1;" vertex="1" parent="1">
          <mxGeometry x="860" y="50" width="60" height="20" as="geometry" />
        </mxCell>
        <mxCell id="sv8TZbt-S6DjbUds4RR_-8" value="Guard Duty" style="outlineConnect=0;fontColor=#232F3E;gradientColor=#F54749;gradientDirection=north;fillColor=#C7131F;strokeColor=#ffffff;dashed=0;verticalLabelPosition=bottom;verticalAlign=top;align=center;html=1;fontSize=12;fontStyle=0;aspect=fixed;shape=mxgraph.aws4.resourceIcon;resIcon=mxgraph.aws4.guardduty;" vertex="1" parent="1">
          <mxGeometry x="200" y="130" width="78" height="78" as="geometry" />
        </mxCell>
        <mxCell id="sv8TZbt-S6DjbUds4RR_-9" value="Cloud Directory" style="outlineConnect=0;fontColor=#232F3E;gradientColor=#F54749;gradientDirection=north;fillColor=#C7131F;strokeColor=#ffffff;dashed=0;verticalLabelPosition=bottom;verticalAlign=top;align=center;html=1;fontSize=12;fontStyle=0;aspect=fixed;shape=mxgraph.aws4.resourceIcon;resIcon=mxgraph.aws4.cloud_directory;" vertex="1" parent="1">
          <mxGeometry x="90" y="230" width="78" height="78" as="geometry" />
        </mxCell>
        <mxCell id="sv8TZbt-S6DjbUds4RR_-10" value="Security Hub" style="outlineConnect=0;fontColor=#232F3E;gradientColor=#F54749;gradientDirection=north;fillColor=#C7131F;strokeColor=#ffffff;dashed=0;verticalLabelPosition=bottom;verticalAlign=top;align=center;html=1;fontSize=12;fontStyle=0;aspect=fixed;shape=mxgraph.aws4.resourceIcon;resIcon=mxgraph.aws4.security_hub;" vertex="1" parent="1">
          <mxGeometry x="202" y="230" width="78" height="78" as="geometry" />
        </mxCell>
        <mxCell id="sv8TZbt-S6DjbUds4RR_-11" value="" style="outlineConnect=0;fontColor=#232F3E;gradientColor=none;fillColor=#C7131F;strokeColor=none;dashed=0;verticalLabelPosition=bottom;verticalAlign=top;align=center;html=1;fontSize=12;fontStyle=0;aspect=fixed;pointerEvents=1;shape=mxgraph.aws4.mfa_token;" vertex="1" parent="1">
          <mxGeometry x="90" y="350" width="78" height="78" as="geometry" />
        </mxCell>
        <mxCell id="sv8TZbt-S6DjbUds4RR_-12" value="VPC" style="outlineConnect=0;dashed=0;verticalLabelPosition=bottom;verticalAlign=top;align=center;html=1;shape=mxgraph.aws3.vpc;fillColor=#F58534;gradientColor=none;" vertex="1" parent="1">
          <mxGeometry x="443" y="129" width="67.5" height="81" as="geometry" />
        </mxCell>
        <mxCell id="sv8TZbt-S6DjbUds4RR_-13" value="Idenity Provider" style="aspect=fixed;perimeter=ellipsePerimeter;html=1;align=center;shadow=0;dashed=0;fontColor=#4277BB;labelBackgroundColor=#ffffff;fontSize=12;spacingTop=3;image;image=img/lib/ibm/security/identity_provider.svg;" vertex="1" parent="1">
          <mxGeometry x="220" y="359" width="60" height="60" as="geometry" />
        </mxCell>
        <mxCell id="sv8TZbt-S6DjbUds4RR_-16" value="Versioned Bucket" style="shape=image;html=1;verticalAlign=top;verticalLabelPosition=bottom;labelBackgroundColor=#ffffff;imageAspect=0;aspect=fixed;image=https://cdn2.iconfinder.com/data/icons/amazon-aws-stencils/100/Storage__Content_Delivery_Amazon_S3_Bucket-128.png" vertex="1" parent="1">
          <mxGeometry x="430" y="270" width="128" height="128" as="geometry" />
        </mxCell>
        <mxCell id="sv8TZbt-S6DjbUds4RR_-17" value="NonVersioned Bucket" style="shape=image;html=1;verticalAlign=top;verticalLabelPosition=bottom;labelBackgroundColor=#ffffff;imageAspect=0;aspect=fixed;image=https://cdn2.iconfinder.com/data/icons/amazon-aws-stencils/100/Storage__Content_Delivery_Amazon_S3_Bucket-128.png" vertex="1" parent="1">
          <mxGeometry x="430" y="428" width="128" height="128" as="geometry" />
        </mxCell>
        <mxCell id="sv8TZbt-S6DjbUds4RR_-18" value="Secrets Manager" style="outlineConnect=0;fontColor=#232F3E;gradientColor=#F54749;gradientDirection=north;fillColor=#C7131F;strokeColor=#ffffff;dashed=0;verticalLabelPosition=bottom;verticalAlign=top;align=center;html=1;fontSize=12;fontStyle=0;aspect=fixed;shape=mxgraph.aws4.resourceIcon;resIcon=mxgraph.aws4.secrets_manager;" vertex="1" parent="1">
          <mxGeometry x="570" y="132" width="78" height="78" as="geometry" />
        </mxCell>
        <mxCell id="sv8TZbt-S6DjbUds4RR_-19" value="EC2" style="outlineConnect=0;dashed=0;verticalLabelPosition=bottom;verticalAlign=top;align=center;html=1;shape=mxgraph.aws3.ec2;fillColor=#F58534;gradientColor=none;" vertex="1" parent="1">
          <mxGeometry x="790" y="117" width="76.5" height="93" as="geometry" />
        </mxCell>
        <mxCell id="sv8TZbt-S6DjbUds4RR_-20" value="RDS" style="outlineConnect=0;dashed=0;verticalLabelPosition=bottom;verticalAlign=top;align=center;html=1;shape=mxgraph.aws3.rds;fillColor=#2E73B8;gradientColor=none;" vertex="1" parent="1">
          <mxGeometry x="910" y="127" width="72" height="81" as="geometry" />
        </mxCell>
        <mxCell id="sv8TZbt-S6DjbUds4RR_-21" value="Fargate" style="outlineConnect=0;fontColor=#232F3E;gradientColor=#F78E04;gradientDirection=north;fillColor=#D05C17;strokeColor=#ffffff;dashed=0;verticalLabelPosition=bottom;verticalAlign=top;align=center;html=1;fontSize=12;fontStyle=0;aspect=fixed;shape=mxgraph.aws4.resourceIcon;resIcon=mxgraph.aws4.fargate;" vertex="1" parent="1">
          <mxGeometry x="790" y="260" width="78" height="78" as="geometry" />
        </mxCell>
        <mxCell id="sv8TZbt-S6DjbUds4RR_-22" value="Lambda" style="outlineConnect=0;dashed=0;verticalLabelPosition=bottom;verticalAlign=top;align=center;html=1;shape=mxgraph.aws3.lambda_function;fillColor=#F58534;gradientColor=none;" vertex="1" parent="1">
          <mxGeometry x="913" y="263" width="69" height="72" as="geometry" />
        </mxCell>
        <mxCell id="sv8TZbt-S6DjbUds4RR_-23" value="User Roles" style="outlineConnect=0;fontColor=#232F3E;gradientColor=none;fillColor=#C7131F;strokeColor=none;dashed=0;verticalLabelPosition=bottom;verticalAlign=top;align=center;html=1;fontSize=12;fontStyle=0;aspect=fixed;pointerEvents=1;shape=mxgraph.aws4.role;" vertex="1" parent="1">
          <mxGeometry x="585" y="264" width="78" height="44" as="geometry" />
        </mxCell>
        <mxCell id="sv8TZbt-S6DjbUds4RR_-24" value="Admin Roles" style="outlineConnect=0;fontColor=#232F3E;gradientColor=none;fillColor=#C7131F;strokeColor=none;dashed=0;verticalLabelPosition=bottom;verticalAlign=top;align=center;html=1;fontSize=12;fontStyle=0;aspect=fixed;pointerEvents=1;shape=mxgraph.aws4.role;" vertex="1" parent="1">
          <mxGeometry x="211" y="450" width="78" height="44" as="geometry" />
        </mxCell>
        <mxCell id="sv8TZbt-S6DjbUds4RR_-25" value="" style="rounded=1;whiteSpace=wrap;html=1;" vertex="1" parent="1">
          <mxGeometry x="740" y="439" width="300" height="360" as="geometry" />
        </mxCell>
        <mxCell id="sv8TZbt-S6DjbUds4RR_-26" value="App Tier" style="text;html=1;align=center;verticalAlign=middle;resizable=0;points=[];autosize=1;" vertex="1" parent="1">
          <mxGeometry x="870" y="419" width="60" height="20" as="geometry" />
        </mxCell>
        <mxCell id="sv8TZbt-S6DjbUds4RR_-27" value="" style="outlineConnect=0;dashed=0;verticalLabelPosition=bottom;verticalAlign=top;align=center;html=1;shape=mxgraph.aws3.ec2;fillColor=#F58534;gradientColor=none;" vertex="1" parent="1">
          <mxGeometry x="800" y="486" width="76.5" height="93" as="geometry" />
        </mxCell>
        <mxCell id="sv8TZbt-S6DjbUds4RR_-28" value="" style="outlineConnect=0;dashed=0;verticalLabelPosition=bottom;verticalAlign=top;align=center;html=1;shape=mxgraph.aws3.rds;fillColor=#2E73B8;gradientColor=none;" vertex="1" parent="1">
          <mxGeometry x="920" y="496" width="72" height="81" as="geometry" />
        </mxCell>
        <mxCell id="sv8TZbt-S6DjbUds4RR_-29" value="" style="outlineConnect=0;fontColor=#232F3E;gradientColor=#F78E04;gradientDirection=north;fillColor=#D05C17;strokeColor=#ffffff;dashed=0;verticalLabelPosition=bottom;verticalAlign=top;align=center;html=1;fontSize=12;fontStyle=0;aspect=fixed;shape=mxgraph.aws4.resourceIcon;resIcon=mxgraph.aws4.fargate;" vertex="1" parent="1">
          <mxGeometry x="810" y="629" width="78" height="78" as="geometry" />
        </mxCell>
        <mxCell id="sv8TZbt-S6DjbUds4RR_-30" value="" style="outlineConnect=0;dashed=0;verticalLabelPosition=bottom;verticalAlign=top;align=center;html=1;shape=mxgraph.aws3.lambda_function;fillColor=#F58534;gradientColor=none;" vertex="1" parent="1">
          <mxGeometry x="940" y="632" width="69" height="72" as="geometry" />
        </mxCell>
        <mxCell id="sv8TZbt-S6DjbUds4RR_-31" value="AWS Config" style="text;html=1;align=center;verticalAlign=middle;resizable=0;points=[];autosize=1;" vertex="1" parent="1">
          <mxGeometry x="100" y="482" width="80" height="20" as="geometry" />
        </mxCell>
      </root>
    </mxGraphModel>
  </diagram>
</mxfile>
